<svg width="17" height="17" viewBox="0 0 17 17" fill="none" xmlns="http://www.w3.org/2000/svg">
<path d="M2.09299 8.4808C2.67699 9.7742 3.67159 11.1754 4.82159 12.3254C6.04819 13.552 7.40139 14.5234 8.63199 15.0602C9.30199 15.3526 9.90139 15.4988 10.406 15.4988C10.9076 15.4988 11.3154 15.354 11.6048 15.0644L12.7656 13.904C13.1182 13.551 13.0866 12.9454 12.695 12.5536L10.9846 10.843C10.5926 10.4514 9.98659 10.42 9.63419 10.7726L9.10159 11.3052C8.95399 11.4156 8.04179 11.1346 7.01559 10.1084C5.98879 9.0818 5.70719 8.169 5.81819 8.0228L6.35139 7.4896C6.70399 7.1368 6.67239 6.5308 6.28079 6.1392L4.56999 4.4288C4.17799 4.0372 3.57239 4.0054 3.21959 4.3584L2.05919 5.5188C1.47979 6.098 1.49179 7.15 2.09279 8.4808H2.09299ZM2.62499 6.0844L3.78559 4.924C3.79359 4.916 3.80959 4.9112 3.83019 4.9112C3.87539 4.9112 3.94399 4.9338 4.00459 4.9944L5.71499 6.7048C5.80339 6.7932 5.81099 6.8986 5.78559 6.924L5.25239 7.457C4.58959 8.1202 5.35299 9.5772 6.44979 10.674C6.99599 11.22 7.59659 11.6564 8.14099 11.9022C9.03699 12.307 9.48159 12.0566 9.66659 11.8712L10.1998 11.3382C10.2254 11.3126 10.3304 11.3204 10.419 11.4086L12.1292 13.1192C12.2176 13.2076 12.2252 13.3128 12.1998 13.3382L11.0392 14.4988C10.7172 14.821 9.93699 14.7568 8.95199 14.3268C7.81079 13.829 6.54479 12.9172 5.38719 11.7598C4.30279 10.6754 3.36799 9.36 2.82199 8.1514C2.38079 7.1748 2.30699 6.4022 2.62479 6.0844H2.62499ZM15.349 9.3674C15.349 5.0294 11.8196 1.5 7.48159 1.5V2.3C11.3786 2.3 14.549 5.4706 14.549 9.3674H15.349Z" fill="white"/>
<path d="M7.63 3.68555V4.48555C10.404 4.48555 12.661 6.74235 12.661 9.51635H13.461C13.461 6.30115 10.845 3.68555 7.63 3.68555Z" fill="white"/>
<path d="M10.6243 9.5151H11.4243C11.4243 7.4231 9.72233 5.7207 7.63013 5.7207V6.5207C9.28113 6.5207 10.6243 7.8641 10.6243 9.5151Z" fill="white"/>
</svg>
