<svg width="51" height="51" viewBox="0 0 51 51" fill="none" xmlns="http://www.w3.org/2000/svg">
<path d="M30.6611 7.96637C32.4155 4.41677 31.7118 1.98917 31.5384 1.50977C27.9785 3.11117 23.001 3.11117 19.4514 1.50977C19.278 1.98917 18.5742 4.41677 20.3286 7.96637C20.5938 8.48646 20.9304 8.96597 21.3588 9.40457C22.6032 10.6796 24.3882 12.6992 25.5 14.7596C26.6118 12.6992 28.3967 10.6796 29.6411 9.40457C30.0593 8.96586 30.4061 8.48646 30.6611 7.96637Z" fill="#1A565F"/>
<path d="M19.4207 8.42473C17.2277 3.99803 18.5537 1.01953 18.5537 1.01953H11.7299C10.5875 1.01953 9.66949 1.94773 9.68989 3.09013C9.77149 6.89473 9.46549 15.0547 5.81389 20.3893C5.11009 21.4195 4.69189 22.613 4.69189 23.8675V46.4095C4.69189 48.3782 6.28309 49.9795 8.25169 49.9795H24.7349V15.4832C23.6435 13.3514 21.6341 11.1482 20.6243 10.1078C20.1449 9.61823 19.7267 9.04703 19.4207 8.42473ZM22.7459 27.5497V43.5739C22.7459 44.9815 21.6035 46.1239 20.1959 46.1239H9.99589C8.58829 46.1239 7.44589 44.9815 7.44589 43.5739V27.5497H11.4545V26.8255C10.1285 25.7443 9.33289 24.1021 9.33289 22.3477C9.33289 20.2975 10.4345 18.3799 12.2297 17.3497L14.5145 16.0339V20.8177H15.6671V16.0441L17.9519 17.3497C20.0735 18.5533 21.1853 20.8993 20.7875 23.3167C20.5529 24.6937 19.8185 25.9279 18.7271 26.8153V27.5497H22.7459ZM45.1859 20.3894C41.5343 15.0548 41.2283 6.89483 41.3099 3.09023C41.3303 1.94773 40.4123 1.01953 39.2699 1.01953H32.4461C32.4461 1.01953 33.7721 3.99793 31.5791 8.42473C31.2629 9.04693 30.8549 9.61813 30.3755 10.1077C29.3657 11.1481 27.3563 13.3513 26.2649 15.4831V49.9795H42.7481C44.7167 49.9795 46.3079 48.3782 46.3079 46.4095V23.8675C46.3079 22.613 45.8897 21.4195 45.1859 20.3894ZM43.5539 43.5739C43.5539 44.9815 42.4115 46.1239 41.0039 46.1239H30.8039C29.3963 46.1239 28.2539 44.9815 28.2539 43.5739V27.5497H33.5579V23.5717H31.7015C30.9059 23.5717 30.1919 23.0719 29.9267 22.3171C29.6615 21.5623 29.9063 20.7158 30.5285 20.2159L33.5171 17.8597C34.0679 17.4109 34.8023 17.1457 35.5571 17.1457H40.0145C41.1059 17.1457 41.9831 18.0331 41.9831 19.1244V21.6031C41.9831 22.6944 41.1059 23.5717 40.0145 23.5717H39.2597V27.5497H43.5539V43.5739Z" fill="#78E183"/>
<path d="M17.1973 18.6758V21.0014C17.1973 21.746 16.5853 22.3478 15.8407 22.3478H14.3413C13.5967 22.3478 12.9847 21.746 12.9847 21.0014V18.6758C11.7097 19.4102 10.8631 20.777 10.8631 22.3478C10.8631 23.9288 11.7199 25.2956 12.9847 26.03V27.5498H17.1973V26.0095C18.2683 25.3975 19.0639 24.3265 19.2781 23.0617C19.5841 21.2053 18.6661 19.5121 17.1973 18.6758ZM8.97607 43.5739C8.97607 44.1349 9.42487 44.5939 9.99607 44.5939H20.1961C20.7571 44.5939 21.2161 44.1349 21.2161 43.5739V29.0797H8.97607V43.5739ZM35.0881 27.5497H37.7299V22.0448H40.0164C40.2631 22.0448 40.4569 21.8509 40.4569 21.6043V19.1197C40.4569 18.873 40.2631 18.6791 40.0164 18.6791H35.5584C35.153 18.6791 34.7654 18.8201 34.466 19.0668L31.4881 21.4103C31.2237 21.6218 31.3647 22.0447 31.6995 22.0447H35.0881V27.5497ZM29.7837 43.5739C29.7837 44.1349 30.2325 44.5939 30.8037 44.5939H41.0037C41.5647 44.5939 42.0237 44.1349 42.0237 43.5739V29.0797H29.7837V43.5739Z" fill="#1A565F"/>
</svg>
