<svg width="22" height="25" viewBox="0 0 22 25" fill="none" xmlns="http://www.w3.org/2000/svg">
<path d="M10.9999 16.1673C13.0249 16.1673 14.6666 14.5257 14.6666 12.5007C14.6666 10.4756 13.0249 8.83398 10.9999 8.83398C8.97487 8.83398 7.33325 10.4756 7.33325 12.5007C7.33325 14.5257 8.97487 16.1673 10.9999 16.1673Z" stroke="white" stroke-width="1.46667" stroke-linecap="round" stroke-linejoin="round"/>
<path d="M2.75 16.1667V8.83333C2.75 6.30203 4.80203 4.25 7.33333 4.25H14.6667C17.198 4.25 19.25 6.30203 19.25 8.83333V16.1667C19.25 18.698 17.198 20.75 14.6667 20.75H7.33333C4.80203 20.75 2.75 18.698 2.75 16.1667Z" stroke="white" stroke-width="1.46667"/>
<path d="M16.0417 7.46814L16.0517 7.45703" stroke="white" stroke-width="1.46667" stroke-linecap="round" stroke-linejoin="round"/>
</svg>
