<svg width="34" height="17" viewBox="0 0 34 17" fill="none" xmlns="http://www.w3.org/2000/svg">
<path d="M7.82347 10.9455C9.17348 10.9455 10.2679 9.85109 10.2679 8.50109C10.2679 7.15106 9.17348 6.05664 7.82347 6.05664C6.47344 6.05664 5.37903 7.15106 5.37903 8.50109C5.37903 9.85109 6.47344 10.9455 7.82347 10.9455Z" stroke="white" stroke-width="0.977778" stroke-linecap="round" stroke-linejoin="round"/>
<path d="M2.32336 10.9444V6.05556C2.32336 4.36802 3.69139 3 5.37892 3H10.2678C11.9553 3 13.3234 4.36802 13.3234 6.05556V10.9444C13.3234 12.632 11.9553 14 10.2678 14H5.37892C3.69139 14 2.32336 12.632 2.32336 10.9444Z" stroke="white" stroke-width="0.977778"/>
<path d="M11.1843 5.14608L11.191 5.13867" stroke="white" stroke-width="0.977778" stroke-linecap="round" stroke-linejoin="round"/>
<path d="M29.4355 13.8585L21.4504 3.59178C21.263 3.35093 21.4347 3 21.7398 3H23.2552C23.3683 3 23.4752 3.05224 23.5446 3.14156L31.5298 13.4082C31.7172 13.6491 31.5455 14 31.2404 14H29.725C29.6118 14 29.505 13.9477 29.4355 13.8585Z" stroke="white" stroke-width="0.977778"/>
<path d="M31.3787 3L21.601 14" stroke="white" stroke-width="0.977778" stroke-linecap="round"/>
</svg>
