<svg width="17" height="17" viewBox="0 0 17 17" fill="none" xmlns="http://www.w3.org/2000/svg">
<path d="M15.46 3.84073C15.448 3.8093 15.433 3.77914 15.415 3.75073C15.4078 3.73188 15.3995 3.71351 15.39 3.69573C15.3434 3.64953 15.2914 3.60923 15.235 3.57573L15.15 3.54573H1.95998C1.92508 3.54205 1.88989 3.54205 1.85498 3.54573L1.76998 3.57573C1.74353 3.59011 1.71843 3.60684 1.69498 3.62573C1.66789 3.64486 1.64276 3.66663 1.61998 3.69073C1.61047 3.7085 1.60211 3.72688 1.59498 3.74573C1.5421 3.79939 1.50567 3.86705 1.48998 3.94073C1.48869 3.96071 1.48869 3.98075 1.48998 4.00073V13.0007C1.48998 13.1333 1.54266 13.2605 1.63643 13.3543C1.7302 13.4481 1.85737 13.5007 1.98998 13.5007H14.99C15.1226 13.5007 15.2498 13.4481 15.3435 13.3543C15.4373 13.2605 15.49 13.1333 15.49 13.0007V4.00073C15.4913 3.98075 15.4913 3.96071 15.49 3.94073C15.4835 3.90644 15.4734 3.87293 15.46 3.84073ZM13.52 4.50073L8.48998 8.37073L3.45998 4.50073H13.52ZM14.49 12.5007H2.48998V5.00073L8.18498 9.38073C8.27241 9.44804 8.37965 9.48453 8.48998 9.48453C8.60032 9.48453 8.70755 9.44804 8.79498 9.38073L14.49 5.00073V12.5007Z" fill="white"/>
</svg>
