<svg width="73" height="36" viewBox="0 0 73 36" fill="none" xmlns="http://www.w3.org/2000/svg">
<rect x="1.05064" y="1.42857" width="71.1916" height="33.1429" rx="4.47387" fill="#1A565F" stroke="#78E183" stroke-width="1.14286"/>
<rect x="2.1935" y="2.57143" width="68.9059" height="30.8571" rx="3.33101" stroke="white" stroke-width="1.14286"/>
<rect width="3.12195" height="3.12195" rx="1.56098" transform="matrix(1 0 0 -1 4.93921 8.63477)" fill="#78E183"/>
<rect width="3.12195" height="3.12195" rx="1.56098" transform="matrix(1 0 0 -1 65.6221 8.63477)" fill="#78E183"/>
<rect width="3.12195" height="3.12195" rx="1.56098" transform="matrix(1 0 0 -1 4.93921 30.4883)" fill="#78E183"/>
<rect width="3.12195" height="3.12195" rx="1.56098" transform="matrix(1 0 0 -1 65.6221 30.4883)" fill="#78E183"/>
<path d="M13.0717 22.1719V14.3221H14.7049V20.7494H18.0239V22.1719H13.0717ZM18.2544 22.1719L20.9096 14.3221H23.0802L25.7354 22.1719H23.9547L23.4279 20.5703H20.5514L20.0245 22.1719H18.2544ZM21.0044 19.1479H22.9748L21.7736 15.439H22.2162L21.0044 19.1479ZM30.0043 22.2983C29.4423 22.2983 28.919 22.1965 28.4343 21.9928C27.9496 21.789 27.5246 21.5046 27.1594 21.1393C26.7941 20.774 26.5096 20.3455 26.3059 19.8538C26.1022 19.3621 26.0004 18.8248 26.0004 18.2417C26.0004 17.6587 26.0987 17.1213 26.2954 16.6296C26.4921 16.1309 26.7695 15.7024 27.1278 15.3442C27.486 14.9789 27.904 14.6979 28.3816 14.5012C28.8663 14.2975 29.3931 14.1957 29.9621 14.1957C30.5311 14.1957 31.0404 14.2905 31.4899 14.4802C31.9465 14.6698 32.3328 14.9227 32.6489 15.2388C32.965 15.5549 33.1898 15.9061 33.3233 16.2925L31.8798 16.9879C31.7463 16.6086 31.511 16.296 31.1738 16.0501C30.8437 15.7972 30.4398 15.6708 29.9621 15.6708C29.4985 15.6708 29.0911 15.7797 28.7399 15.9974C28.3886 16.2152 28.1147 16.5172 27.918 16.9036C27.7284 17.2829 27.6335 17.7289 27.6335 18.2417C27.6335 18.7545 27.7354 19.2041 27.9391 19.5904C28.1428 19.9768 28.4203 20.2788 28.7715 20.4966C29.1297 20.7143 29.5406 20.8232 30.0043 20.8232C30.3625 20.8232 30.6962 20.7565 31.0052 20.623C31.3213 20.4825 31.5742 20.2823 31.7639 20.0224C31.9605 19.7625 32.0589 19.4499 32.0589 19.0847V18.4314L32.807 19.0636H29.9621V17.6938H33.6921V18.5262C33.6921 19.1654 33.5867 19.7239 33.376 20.2015C33.1652 20.6722 32.8807 21.0655 32.5225 21.3816C32.1713 21.6907 31.7744 21.9225 31.3319 22.077C30.8964 22.2246 30.4538 22.2983 30.0043 22.2983ZM36.8678 19.9803V18.6105H41.6092V19.9803H36.8678ZM46.2609 22.1719V15.7024H44.7331V14.3221H47.8941V22.1719H46.2609ZM49.2647 22.1719V20.9075L51.372 18.7369C51.7865 18.3085 52.0991 17.9713 52.3098 17.7254C52.5275 17.4726 52.6751 17.2618 52.7523 17.0932C52.8366 16.9247 52.8788 16.7596 52.8788 16.598C52.8788 16.31 52.7839 16.0852 52.5943 15.9237C52.4116 15.7551 52.1798 15.6708 51.8989 15.6708C51.6109 15.6708 51.3545 15.7551 51.1297 15.9237C50.9049 16.0852 50.7398 16.3346 50.6345 16.6718L49.212 16.2082C49.2963 15.8008 49.4719 15.446 49.7389 15.144C50.0058 14.8419 50.3289 14.6101 50.7082 14.4486C51.0875 14.28 51.4844 14.1957 51.8989 14.1957C52.4187 14.1957 52.8753 14.287 53.2686 14.4696C53.662 14.6523 53.9675 14.9087 54.1853 15.2388C54.4031 15.5689 54.5119 15.9553 54.5119 16.3978C54.5119 16.6788 54.4628 16.9563 54.3644 17.2302C54.2661 17.4971 54.1151 17.7711 53.9114 18.0521C53.7147 18.326 53.4583 18.6246 53.1422 18.9477L51.3404 20.8021H54.5857V22.1719H49.2647ZM58.1755 22.2983C57.74 22.2983 57.3256 22.2175 56.9322 22.056C56.5389 21.8874 56.2052 21.6521 55.9313 21.35C55.6573 21.048 55.4747 20.6932 55.3833 20.2858L56.8269 19.8011C56.9463 20.1383 57.1219 20.3947 57.3537 20.5703C57.5855 20.7389 57.8594 20.8232 58.1755 20.8232C58.4354 20.8232 58.6567 20.774 58.8393 20.6757C59.029 20.5773 59.1765 20.4404 59.2819 20.2648C59.3873 20.0821 59.4399 19.8714 59.4399 19.6326C59.4399 19.3937 59.3873 19.19 59.2819 19.0214C59.1835 18.8458 59.0395 18.7124 58.8499 18.621C58.6673 18.5227 58.4425 18.4735 58.1755 18.4735C58.021 18.4735 57.8665 18.4911 57.7119 18.5262C57.5574 18.5613 57.4169 18.6105 57.2905 18.6737L56.9112 17.8835L58.9236 15.6919H55.8575V14.3221H60.757V15.5865L58.6918 17.9362L58.7445 17.2724C59.2152 17.2724 59.6226 17.3707 59.9668 17.5674C60.318 17.757 60.5884 18.024 60.7781 18.3682C60.9748 18.7124 61.0731 19.1128 61.0731 19.5693C61.0731 20.0891 60.9467 20.5563 60.6938 20.9707C60.4409 21.3851 60.0967 21.7118 59.6612 21.9506C59.2257 22.1824 58.7305 22.2983 58.1755 22.2983Z" fill="white"/>
</svg>
