<svg width="44" height="44" viewBox="0 0 44 44" fill="none" xmlns="http://www.w3.org/2000/svg">
<g clip-path="url(#clip0_33_17645)">
<path d="M22 0C9.8505 0 0 9.8505 0 22C0 34.1495 9.8505 44 22 44C34.1495 44 44 34.1495 44 22C44 9.8505 34.1495 0 22 0ZM22 5.5C29.1596 5.5 35.2069 10.1117 37.4907 16.5H6.50925C8.79313 10.1117 14.8404 5.5 22 5.5ZM22 24.75C21.6338 24.7583 21.2696 24.6933 20.9288 24.5589C20.5881 24.4245 20.2776 24.2234 20.0156 23.9673C19.7537 23.7113 19.5455 23.4055 19.4033 23.0679C19.2612 22.7303 19.1879 22.3677 19.1878 22.0014C19.1877 21.6351 19.2608 21.2724 19.4028 20.9348C19.5448 20.5971 19.7528 20.2912 20.0147 20.035C20.2765 19.7788 20.5869 19.5776 20.9276 19.443C21.2683 19.3084 21.6324 19.2433 21.9986 19.2514C22.7171 19.2673 23.4009 19.5638 23.9035 20.0775C24.4061 20.5912 24.6876 21.2813 24.6878 22C24.688 22.7187 24.4068 23.4089 23.9045 23.9229C23.4021 24.4369 22.7185 24.7338 22 24.75ZM5.5 22C13.0144 22 19.1001 29.2408 19.228 38.2209C11.451 36.8885 5.5 30.1483 5.5 22ZM24.772 38.2209C24.8999 29.2408 30.9856 22 38.5 22C38.5 30.1483 32.549 36.8885 24.772 38.2209Z" fill="#1A565F"/>
</g>
<defs>
<clipPath id="clip0_33_17645">
<rect width="44" height="44" fill="white"/>
</clipPath>
</defs>
</svg>
